<svg width="256" height="256" viewBox="0 0 256 256" fill="none" xmlns="http://www.w3.org/2000/svg">
<path d="M70.534 69.696L53.988 53.15L54.058 172.75L54.256 178.34C54.338 180.97 54.826 183.938 55.64 187.014L186.744 233.244L219.516 218.724L219.528 218.684L70.534 69.696Z" fill="#00D2B8"/>
<path d="M55.6401 187.014L55.6481 187.022C55.6401 186.968 55.6121 186.908 55.6121 186.852C55.6121 186.908 55.6201 186.96 55.6401 187.014V187.014ZM219.516 218.724L186.744 233.244L55.6481 187.022C58.1521 196.63 63.6961 207.43 69.6621 213.336L112.446 255.876L207.576 256L219.528 218.684L219.516 218.724V218.724Z" fill="#55DDCA"/>
<path d="M3.03404 130.116C-1.20196 134.638 0.902038 143.966 7.72204 150.838L37.14 180.5L55.64 187.014C54.826 183.938 54.338 180.97 54.256 178.34L54.058 172.75L53.988 53.15L3.03404 130.116V130.116Z" fill="#0081C6"/>
<path d="M187.82 54.686C184.744 53.9 181.794 53.414 179.12 53.33L173.212 53.126L53.988 53.142L219.544 218.684H219.558L234.098 185.88L187.82 54.686Z" fill="#0079B3"/>
<path d="M187.67 54.654C187.734 54.668 187.784 54.686 187.826 54.692L187.82 54.686C187.784 54.668 187.734 54.668 187.67 54.654ZM214.118 68.732C208.11 62.674 197.452 57.168 187.826 54.692L234.098 185.88L219.558 218.684H219.544L255.076 207.336L255.152 109.92L214.118 68.732V68.732Z" fill="#00A4E4"/>
<path d="M181.338 36.298L151.684 6.862C144.826 0.0679998 135.494 -2.046 130.984 2.178L53.988 53.142L173.212 53.126L179.12 53.33C181.794 53.414 184.744 53.9 187.82 54.686L181.338 36.298V36.298Z" fill="#00D2B8"/>
</svg>
