<svg width="229" height="229" viewBox="0 0 229 229" fill="none" xmlns="http://www.w3.org/2000/svg">
<circle cx="114.5" cy="114.5" r="114.5" fill="url(#paint0_linear_201_18)"/>
<g clip-path="url(#clip0_201_18)">
<path d="M93.8853 62.6339C97.6092 63.3224 96.5737 68.9471 92.8495 68.2586C63.3116 62.7589 42.6168 74.4543 58.2838 103.413C60.1562 106.702 55.1889 109.54 53.3167 106.251C34.6623 73.5115 58.8515 55.9871 93.8853 62.6336V62.6339ZM168.381 118.166C194.785 85.8167 183.157 61.7596 151.409 61.3662C147.638 61.3168 147.569 67.0357 151.339 67.085C179.442 66.9647 186.128 87.7929 164.006 114.481C161.568 117.451 166.034 120.988 168.381 118.166V118.166ZM140.607 168.905C142.536 165.695 137.732 162.703 135.708 165.949C119.733 191.276 100.207 183.473 88.3888 152.933C87.1111 149.295 81.7156 151.197 82.9932 154.835C93.4482 186.827 121.174 200.922 140.607 168.905V168.905ZM123.108 111.937C123.108 105.766 116.395 101.889 111.053 104.974C105.711 108.059 105.711 115.814 111.053 118.9C116.395 121.985 123.108 118.108 123.108 111.937ZM52.9268 137.933C53.8576 112.511 90.8196 80.0846 134.408 68.9264C138.15 68.1114 136.938 62.5225 133.195 63.3378C92.9348 72.2679 45.1725 108.124 47.1801 139.505C40.2017 143.724 40.2744 153.965 47.3942 158.063C54.5854 162.201 63.6227 157 63.6227 148.724C63.6227 142.502 58.5167 138.019 52.9268 137.933V137.933ZM171.297 157.754C176.436 161.104 183.869 159.57 186.869 153.557C190.561 146.156 184.801 137.458 176.524 137.938C168.754 138.389 164.179 146.618 167.443 153.35C142.338 164.292 95.7072 145.983 68.2904 116.878C65.7812 114.105 61.5463 117.951 64.0551 120.724C90.0594 149.532 142.898 172.827 171.297 157.754V157.754ZM125.886 39.7785C125.889 32.7025 118.833 27.2147 111.688 29.5425C103.804 32.1115 101.672 42.2874 107.859 47.8158C113.065 52.4663 120.902 50.9184 124.27 45.489C143.778 58.4099 155.883 102.567 142.984 149.302C141.869 152.92 147.334 154.612 148.45 150.994C160.171 113.064 153.83 56.8937 125.886 39.7782V39.7785Z" fill="url(#paint1_linear_201_18)"/>
</g>
<defs>
<linearGradient id="paint0_linear_201_18" x1="114.5" y1="0" x2="114.5" y2="229" gradientUnits="userSpaceOnUse">
<stop stop-color="#272A37"/>
<stop offset="1" stop-color="#262729"/>
</linearGradient>
<linearGradient id="paint1_linear_201_18" x1="115.004" y1="28.9998" x2="115.004" y2="187" gradientUnits="userSpaceOnUse">
<stop stop-color="#31BED9"/>
<stop offset="1" stop-color="#A0EBF9"/>
</linearGradient>
<clipPath id="clip0_201_18">
<rect width="146" height="158" fill="white" transform="translate(42 29)"/>
</clipPath>
</defs>
</svg>
