<svg width="72" height="106" viewBox="0 0 72 106" fill="none" xmlns="http://www.w3.org/2000/svg">
<path d="M53.6667 70.6667C63.4237 70.6667 71.3333 62.757 71.3333 53C71.3333 43.243 63.4237 35.3333 53.6667 35.3333C43.9096 35.3333 36 43.243 36 53C36 62.757 43.9096 70.6667 53.6667 70.6667Z" fill="#19BCFE"/>
<path fill-rule="evenodd" clip-rule="evenodd" d="M18.3333 106C23.0188 106 27.5124 104.139 30.8255 100.826C34.1387 97.5124 36 93.0188 36 88.3333V70.6667H18.3333C13.6478 70.6667 9.15422 72.528 5.84107 75.8411C2.52793 79.1543 0.666626 83.6478 0.666626 88.3333C0.666626 93.0188 2.52793 97.5124 5.84107 100.826C9.15422 104.139 13.6478 106 18.3333 106Z" fill="#09CF83"/>
<path fill-rule="evenodd" clip-rule="evenodd" d="M18.3333 70.6667H36V35.3333H18.3333C13.6478 35.3333 9.15422 37.1946 5.84107 40.5078C2.52793 43.8209 0.666626 48.3145 0.666626 53C0.666626 57.6855 2.52793 62.1791 5.84107 65.4922C9.15422 68.8054 13.6478 70.6667 18.3333 70.6667Z" fill="#A259FF"/>
<path fill-rule="evenodd" clip-rule="evenodd" d="M18.3333 35.3333H36V0H18.3333C13.6478 0 9.15422 1.8613 5.84107 5.17445C2.52793 8.48759 0.666626 12.9812 0.666626 17.6667C0.666626 22.3522 2.52793 26.8457 5.84107 30.1589C9.15422 33.472 13.6478 35.3333 18.3333 35.3333Z" fill="#F24E1E"/>
<path fill-rule="evenodd" clip-rule="evenodd" d="M53.6667 35.3333H36V0H53.6667C58.3522 0 62.8457 1.8613 66.1589 5.17445C69.472 8.48759 71.3333 12.9812 71.3333 17.6667C71.3333 22.3522 69.472 26.8457 66.1589 30.1589C62.8457 33.472 58.3522 35.3333 53.6667 35.3333Z" fill="#FF7262"/>
</svg>
