<svg width="32" height="32" viewBox="0 0 32 32" fill="none" xmlns="http://www.w3.org/2000/svg">
<path d="M16.62 30L15.869 29.751C15.869 29.751 15.969 25.951 14.594 25.684C13.694 24.636 14.727 -19.057 18.017 25.535C17.3928 25.8516 16.9151 26.3973 16.684 27.058C16.5601 28.0337 16.5387 29.0198 16.62 30V30Z" fill="url(#paint0_linear_202_23)"/>
<path d="M17.026 26.329C19.0256 24.8238 20.5569 22.782 21.442 20.4409C22.3271 18.0998 22.5296 15.5556 22.026 13.104C20.556 6.619 17.075 4.487 16.7 3.673C16.3765 3.16613 16.1003 2.63053 15.875 2.073L16.152 20.142C16.152 20.142 15.578 25.664 17.026 26.329Z" fill="url(#paint1_linear_202_23)"/>
<path d="M15.487 26.569C15.487 26.569 9.36598 22.4 9.71998 15.025C9.75301 12.8016 10.2628 10.6113 11.2149 8.60182C12.167 6.59237 13.5393 4.81065 15.239 3.377C15.4376 3.20825 15.5954 2.99668 15.7006 2.75818C15.8057 2.51969 15.8554 2.26047 15.846 2C16.227 2.82 16.165 14.243 16.205 15.579C16.36 20.776 15.916 25.588 15.487 26.569V26.569Z" fill="url(#paint2_linear_202_23)"/>
<defs>
<linearGradient id="paint0_linear_202_23" x1="11.5716" y1="16.2523" x2="20.2033" y2="19.1814" gradientUnits="userSpaceOnUse">
<stop offset="0.231" stop-color="#999875"/>
<stop offset="0.563" stop-color="#9B9977"/>
<stop offset="0.683" stop-color="#A09F7E"/>
<stop offset="0.768" stop-color="#A9A889"/>
<stop offset="0.837" stop-color="#B7B69A"/>
<stop offset="0.896" stop-color="#C9C7B0"/>
<stop offset="0.948" stop-color="#DEDDCB"/>
<stop offset="0.994" stop-color="#F8F6EB"/>
<stop offset="1" stop-color="#FBF9EF"/>
</linearGradient>
<linearGradient id="paint1_linear_202_23" x1="14.7369" y1="1.94388" x2="18.553" y2="25.7728" gradientUnits="userSpaceOnUse">
<stop stop-color="#48A547"/>
<stop offset="1" stop-color="#3F9143"/>
</linearGradient>
<linearGradient id="paint2_linear_202_23" x1="9.19346" y1="15.755" x2="19.4341" y2="12.3254" gradientUnits="userSpaceOnUse">
<stop stop-color="#41A247"/>
<stop offset="0.352" stop-color="#4BA74B"/>
<stop offset="0.956" stop-color="#67B554"/>
<stop offset="1" stop-color="#69B655"/>
</linearGradient>
</defs>
</svg>
