<svg width="173" height="172" viewBox="0 0 173 172" fill="none" xmlns="http://www.w3.org/2000/svg">
<g clip-path="url(#clip0_201_21)">
<path d="M101.865 0C100.614 0 99.4521 0.26778 98.3796 0.624596C100.658 2.14022 101.909 4.14689 102.534 6.42133C102.58 6.73363 102.669 6.95689 102.713 7.26852C102.758 7.5363 102.803 7.80408 102.803 8.07118C102.982 11.9955 101.775 12.4858 100.926 14.8048C99.6305 17.7929 99.988 21.0036 101.552 23.5896C101.686 23.9019 101.865 24.2587 102.088 24.571C100.39 13.2885 109.817 11.5941 111.559 8.07118C111.693 4.99474 109.147 2.94289 107.136 1.5163C105.215 0.356141 103.473 0 101.865 0ZM116.072 2.54155C115.893 3.56748 116.027 3.2997 115.982 3.83526C115.938 4.19208 115.938 4.63793 115.893 4.99474C115.804 5.35089 115.715 5.7077 115.58 6.06452C115.491 6.42201 115.357 6.77815 115.223 7.13496C115.044 7.49178 114.911 7.80408 114.732 8.16022C114.598 8.33896 114.508 8.51771 114.374 8.69578L114.106 9.09711C113.883 9.40941 113.66 9.72171 113.436 9.98882C113.168 10.2566 112.945 10.5689 112.632 10.7915V10.836C112.364 11.0593 112.096 11.327 111.783 11.5496C110.845 12.2633 109.773 12.7981 108.789 13.4673C108.477 13.6898 108.164 13.8686 107.896 14.1364C107.583 14.359 107.315 14.5816 107.047 14.85C106.734 15.1171 106.511 15.3849 106.243 15.6972C106.02 15.9643 105.752 16.2773 105.573 16.5889C105.35 16.9012 105.127 17.2128 104.948 17.5251C104.768 17.8826 104.635 18.1942 104.456 18.5504C104.322 18.9079 104.188 19.2202 104.099 19.5763C103.964 19.9776 103.875 20.3344 103.786 20.6913C103.741 20.87 103.741 21.0926 103.697 21.2713C103.651 21.4494 103.651 21.6282 103.607 21.8062C103.607 22.163 103.562 22.5644 103.562 22.9212C103.562 23.189 103.562 23.4561 103.607 23.7239C103.607 24.0807 103.652 24.4375 103.741 24.8388C103.786 25.1956 103.875 25.5518 103.964 25.9086C104.099 26.2661 104.188 26.6222 104.322 26.979C104.411 27.2016 104.545 27.4249 104.635 27.6036L94.3594 23.6348C92.643 23.147 90.9149 22.7008 89.1768 22.2966L86.3622 21.6282C83.6814 21.0926 80.956 20.6913 78.2312 20.4242C78.142 20.4242 78.0967 20.379 78.0082 20.379C75.3506 20.1118 72.6813 19.9779 70.0103 19.9776C68.0445 19.9776 66.0786 20.0667 64.1581 20.2002C61.432 20.379 58.7072 20.7358 55.9811 21.1816C55.3114 21.2713 54.641 21.4049 53.9713 21.5391C52.586 21.8062 51.2459 22.1185 49.9504 22.4308L47.9393 22.9657C47.2696 23.2335 46.6438 23.5458 46.0187 23.8129L44.5442 24.482C44.455 24.5265 44.3651 24.5265 44.3212 24.571C43.8738 24.7936 43.4717 24.9724 43.0696 25.195C42.962 25.2315 42.8574 25.2764 42.7567 25.3292C42.2654 25.5518 41.7742 25.8196 41.3721 26.0428C41.0592 26.1764 40.7463 26.3544 40.4787 26.488C40.349 26.57 40.2148 26.6445 40.0766 26.7113C39.6745 26.9339 39.2724 27.1571 38.9142 27.3804C38.5446 27.5831 38.1868 27.8065 37.8425 28.0495C37.5296 28.2721 37.2174 28.4508 36.9491 28.6734C36.9045 28.7179 36.8599 28.7179 36.8146 28.7624C36.547 28.9412 36.2341 29.1638 35.9658 29.387L35.8766 29.4761L35.2069 30.011C35.117 30.0562 35.0278 30.1452 34.9386 30.1897C34.7156 30.3678 34.4919 30.591 34.2683 30.7698C34.2236 30.8581 34.1344 30.9033 34.0898 30.9479C33.8216 31.2156 33.5533 31.4382 33.2857 31.706C33.2404 31.706 33.2404 31.7505 33.1965 31.795C32.9282 32.0176 32.6599 32.2854 32.3923 32.5532C32.347 32.5977 32.347 32.6422 32.3024 32.6422C32.0794 32.8648 31.8564 33.0881 31.6327 33.3559C31.5435 33.4449 31.4097 33.5339 31.3198 33.623C31.0968 33.8907 30.8285 34.1585 30.5602 34.4256C30.5156 34.5153 30.4264 34.5599 30.3812 34.6489C30.0243 35.0057 29.7115 35.3625 29.354 35.7193L29.2202 35.8529C28.5052 36.611 27.7456 37.3692 26.9414 38.0383C26.1492 38.7439 25.3134 39.3993 24.439 40.0005C23.5727 40.6068 22.6783 41.1722 21.7589 41.6948C20.847 42.194 19.9073 42.6405 18.9442 43.0324C17.9938 43.4355 17.0245 43.7927 16.0397 44.1028C14.1638 44.5042 12.2418 45.2623 10.5895 45.3959C10.2314 45.3959 9.82997 45.4849 9.47248 45.5294C9.099 45.6139 8.72662 45.7032 8.35542 45.7972L7.28295 46.1985C6.92546 46.3321 6.56865 46.5108 6.21116 46.6889C5.89828 46.9115 5.54079 47.0902 5.2279 47.3135C4.91501 47.5361 4.6028 47.8039 4.33452 48.0716C4.02163 48.2942 3.70874 48.6065 3.44114 48.8743C3.17285 49.1866 2.90456 49.4544 2.68156 49.766C2.45855 50.1228 2.19026 50.4351 2.01118 50.7913C1.78817 51.1042 1.56449 51.4604 1.38541 51.8172C1.207 52.2185 1.0286 52.5753 0.894115 52.9773C0.753191 53.3612 0.61914 53.7475 0.492025 54.1362C0.402822 54.493 0.313619 54.8498 0.269018 55.2066C0.269018 55.2511 0.22374 55.2956 0.22374 55.3402C0.134537 55.7415 0.134537 56.277 0.0899356 56.5442C0.045334 56.8565 0.000732422 57.1242 0.000732422 57.4359C0.000732422 57.6146 0.000732422 57.8372 0.045334 58.0159C0.0899356 58.3282 0.134537 58.596 0.224416 58.8631C0.313619 59.1309 0.402822 59.398 0.537303 59.6658V59.7103C0.671108 59.9781 0.849514 60.2459 1.0286 60.513C1.207 60.7807 1.38608 61.0485 1.60977 61.3156C1.83278 61.5382 2.10039 61.8067 2.36867 62.0293C2.63696 62.297 2.90524 62.5196 3.21745 62.7429C4.28992 63.6791 4.5582 63.9914 5.94288 64.705C6.16588 64.8386 6.38957 64.9276 6.65785 65.0619C6.70246 65.0619 6.74706 65.1064 6.79166 65.1064C6.79166 65.1954 6.79166 65.2399 6.83694 65.329C6.88154 65.6865 6.97074 66.0426 7.05994 66.3994C7.14915 66.8008 7.28295 67.1576 7.41743 67.4699C7.55124 67.7376 7.64044 68.0048 7.77492 68.2725C7.81952 68.3616 7.86412 68.4513 7.90873 68.4951C8.08781 68.8526 8.26689 69.1642 8.4453 69.4765L9.11499 70.4127C9.338 70.6805 9.60629 70.9928 9.87457 71.2606C10.1429 71.5277 10.4111 71.751 10.7234 72.0181C10.7234 72.0181 10.7686 72.0633 10.8126 72.0633C11.0808 72.2859 11.3491 72.5085 11.6167 72.6872C11.9296 72.9098 12.2425 73.0885 12.6 73.2673C12.9129 73.4453 13.2704 73.6241 13.6272 73.7576C13.8955 73.8912 14.2084 73.9802 14.5212 74.0699C14.5658 74.1145 14.6104 74.1145 14.6997 74.159C14.8787 74.2035 15.1017 74.248 15.2808 74.2925C15.1463 76.7005 15.1017 78.975 15.4592 79.7776C15.8613 80.6693 17.8272 77.9497 19.793 74.8281C19.5254 77.9045 19.347 81.5165 19.793 82.587C20.2843 83.7019 22.9651 80.2235 25.2885 76.3882C56.965 69.0752 85.8709 90.9259 88.9092 121.785C88.328 116.969 82.3866 114.293 79.6612 114.962C78.3204 118.262 76.0423 122.498 72.3789 125.129C72.6911 122.186 72.5573 119.153 71.9316 116.211C70.949 120.313 69.0277 124.148 66.3915 127.448C62.1476 127.76 57.9037 125.709 55.6689 122.632C55.4905 122.498 55.4459 122.231 55.3121 122.052C55.1776 121.74 55.0438 121.428 54.9539 121.116C54.8238 120.817 54.7338 120.502 54.6863 120.179C54.6417 119.867 54.6417 119.555 54.6417 119.198V118.53C54.6863 118.217 54.7755 117.905 54.8647 117.593C54.9539 117.281 55.0438 116.969 55.1776 116.656C55.3567 116.344 55.4905 116.032 55.7135 115.72C56.4731 113.579 56.4731 111.84 55.0884 110.815C54.8201 110.64 54.536 110.491 54.2396 110.369C54.0605 110.324 53.8375 110.234 53.6584 110.191C53.5246 110.145 53.4354 110.101 53.301 110.056C52.9887 109.967 52.6759 109.878 52.363 109.834C52.0581 109.746 51.7424 109.7 51.425 109.7C51.1121 109.655 50.7546 109.611 50.4417 109.611C50.2187 109.611 49.9957 109.655 49.7714 109.655C49.4145 109.655 49.1017 109.7 48.7888 109.789C48.4759 109.834 48.163 109.878 47.8508 109.967C47.5379 110.056 47.225 110.146 46.9121 110.28C46.5999 110.413 46.3309 110.547 46.0187 110.681C45.7505 110.815 45.4828 110.993 45.17 111.127C34.7602 117.906 40.97 133.78 48.0738 138.374C45.393 138.864 42.6675 139.444 41.9086 140.024L41.8194 140.113C43.74 141.273 45.7505 142.253 47.8508 143.101C50.71 144.037 53.7483 144.884 55.0884 145.241V145.285C58.79 146.043 62.5751 146.313 66.3469 146.088C86.1392 144.705 102.357 129.678 105.306 109.878C105.395 110.28 105.485 110.636 105.574 111.038C105.708 111.84 105.887 112.688 105.976 113.535V113.58C106.065 113.981 106.11 114.383 106.155 114.74V114.918C106.2 115.319 106.244 115.72 106.244 116.077C106.289 116.567 106.334 117.058 106.334 117.549V118.262C106.334 118.485 106.378 118.753 106.378 118.975C106.378 119.243 106.334 119.511 106.334 119.778V120.403C106.334 120.715 106.289 120.983 106.289 121.294C106.289 121.473 106.289 121.651 106.244 121.874C106.244 122.186 106.199 122.498 106.199 122.855C106.154 122.989 106.154 123.123 106.154 123.257C106.11 123.613 106.065 123.926 106.02 124.282C106.02 124.416 106.02 124.55 105.975 124.684C105.931 125.129 105.842 125.531 105.797 125.977V126.066C105.708 126.467 105.618 126.914 105.529 127.315V127.449L105.26 128.653C105.26 128.697 105.216 128.786 105.216 128.831C105.127 129.232 105.037 129.633 104.903 130.035V130.169C104.769 130.615 104.635 131.016 104.546 131.417C104.501 131.462 104.501 131.506 104.501 131.506L104.099 132.844C103.92 133.291 103.787 133.692 103.607 134.138C103.429 134.583 103.295 135.029 103.116 135.431C102.937 135.877 102.758 136.278 102.58 136.724H102.535C102.357 137.125 102.178 137.571 101.954 137.972C101.917 138.08 101.873 138.184 101.82 138.285C101.775 138.33 101.775 138.374 101.731 138.419C98.827 144.26 94.5378 149.388 89.1768 153.402C88.8187 153.624 88.4618 153.893 88.1044 154.16C88.0152 154.249 87.8814 154.294 87.7915 154.382C87.4786 154.606 87.1664 154.829 86.8089 155.052L86.9427 155.319H86.9873L88.8639 155.052H88.9085C90.0709 154.874 91.2319 154.65 92.3935 154.428C92.7064 154.383 93.0639 154.294 93.3761 154.205C93.5998 154.16 93.7782 154.115 94.0019 154.071C94.3148 154.026 94.6277 153.937 94.9399 153.892C95.2082 153.803 95.4765 153.759 95.7441 153.67C100.212 152.599 104.546 151.127 108.701 149.388C101.597 159.065 92.0807 166.869 80.956 171.997C86.0939 171.64 91.2319 170.793 96.1914 169.367C114.196 164.06 129.342 151.975 138.412 135.699C136.57 146.023 132.466 155.815 126.393 164.372C130.723 161.521 134.723 158.201 138.322 154.472C148.33 144.038 154.897 130.793 157.131 116.567C158.655 123.625 159.092 130.873 158.427 138.062C190.684 93.1559 161.108 46.6005 148.732 34.3373C148.687 34.2482 148.643 34.2037 148.643 34.1147C148.598 34.1592 148.598 34.1592 148.598 34.2037C148.598 34.1585 148.598 34.1585 148.553 34.1147C148.553 34.6496 148.508 35.1845 148.464 35.72C148.33 36.7453 148.196 37.7267 148.017 38.7081C147.794 39.6888 147.526 40.6696 147.258 41.651C146.939 42.6163 146.582 43.5682 146.185 44.5042C145.774 45.4284 145.327 46.3361 144.845 47.2251C144.354 48.0723 143.818 48.964 143.237 49.7667C142.662 50.596 142.051 51.3995 141.405 52.1747C140.734 52.9773 140.02 53.691 139.305 54.4046C138.884 54.7888 138.452 55.1604 138.009 55.5189C137.651 55.8312 137.339 56.099 136.982 56.4113C136.177 57.0352 135.373 57.6153 134.48 58.1502C133.631 58.685 132.737 59.2206 131.844 59.6665C130.905 60.1123 129.967 60.5136 129.029 60.915C128.077 61.2737 127.108 61.5862 126.125 61.8512C125.137 62.1166 124.138 62.3398 123.131 62.5203C122.104 62.6991 121.077 62.7881 120.094 62.8771C119.379 62.9216 118.664 62.9662 117.949 62.9662C116.922 62.9662 115.894 62.8771 114.911 62.7881C113.883 62.6984 112.856 62.5648 111.873 62.3416C110.846 62.1635 109.862 61.8964 108.879 61.5841H108.835C109.818 61.4944 110.801 61.4053 111.784 61.2266C112.792 61.0511 113.791 60.8281 114.777 60.5582C115.76 60.2931 116.729 59.9807 117.681 59.6219C118.664 59.2644 119.602 58.8193 120.496 58.3727C121.434 57.9276 122.283 57.4365 123.176 56.9016C124.025 56.3216 124.874 55.7415 125.678 55.1176C126.479 54.4965 127.24 53.8263 127.957 53.1109C128.716 52.4418 129.386 51.6843 130.057 50.9255C130.71 50.1447 131.336 49.3415 131.933 48.5175C132.022 48.3839 132.112 48.2059 132.201 48.0723C132.648 47.3587 133.095 46.645 133.497 45.9314C133.988 45.0472 134.436 44.1393 134.837 43.2111C135.241 42.278 135.599 41.3258 135.909 40.3579C136.222 39.4204 136.446 38.4396 136.669 37.4589C136.848 36.4336 137.027 35.4522 137.115 34.4708C137.205 33.4456 137.294 32.4203 137.294 31.4389C137.294 30.7253 137.25 30.0116 137.205 29.298C137.116 28.2728 136.982 27.2913 136.847 26.3099C136.671 25.3041 136.448 24.3072 136.178 23.3225C135.865 22.3863 135.552 21.4049 135.195 20.4687C134.837 19.5325 134.391 18.5956 133.944 17.7039C133.452 16.8122 132.961 15.9198 132.425 15.0733C131.854 14.2374 131.258 13.4193 130.637 12.6201C129.965 11.8509 129.28 11.0926 128.582 10.3456C128.206 9.96314 127.819 9.59155 127.421 9.23134C125.419 7.67969 123.347 6.22119 121.21 4.86052C120.922 4.6944 120.623 4.54574 120.317 4.41534C118.843 3.47845 117.458 2.98808 116.073 2.54223L116.072 2.54155Z" fill="url(#paint0_linear_201_21)"/>
</g>
<defs>
<linearGradient id="paint0_linear_201_21" x1="86.5007" y1="0" x2="86.5007" y2="171.997" gradientUnits="userSpaceOnUse">
<stop stop-color="#E0234E"/>
<stop offset="1" stop-color="#B00A30"/>
</linearGradient>
<clipPath id="clip0_201_21">
<rect width="173" height="172" fill="white"/>
</clipPath>
</defs>
</svg>
