<svg width="112" height="100" viewBox="0 0 112 100" fill="none" xmlns="http://www.w3.org/2000/svg">
<path d="M56 40.235C61.3217 40.235 65.6617 44.575 65.6617 50C65.6617 55.1667 61.3217 59.5583 56 59.5583C50.6783 59.5583 46.3383 55.1667 46.3383 50C46.3383 44.575 50.6783 40.235 56 40.235ZM32.0783 91.3333C35.3333 93.2967 42.4633 90.3 50.6783 82.55C47.9916 79.5017 45.3566 76.195 42.8766 72.7333C38.7131 72.3349 34.5739 71.714 30.4766 70.8733C27.8416 81.93 28.8233 89.525 32.0783 91.3333ZM35.7466 61.6767L34.2483 59.0417C33.68 60.54 33.1116 62.0383 32.75 63.485C34.145 63.795 35.695 64.0533 37.2966 64.3117L35.7466 61.6767ZM69.5367 57.75L73.7216 50L69.5367 42.25C67.9866 39.5117 66.3333 37.0833 64.835 34.655C62.045 34.5 59.1 34.5 56 34.5C52.9 34.5 49.955 34.5 47.165 34.655C45.6666 37.0833 44.0133 39.5117 42.4633 42.25L38.2783 50L42.4633 57.75C44.0133 60.4883 45.6666 62.9167 47.165 65.345C49.955 65.5 52.9 65.5 56 65.5C59.1 65.5 62.045 65.5 64.835 65.345C66.3333 62.9167 67.9866 60.4883 69.5367 57.75ZM56 23.03C55.0183 24.1667 53.985 25.355 52.9516 26.75H59.0483C58.015 25.355 56.9817 24.1667 56 23.03ZM56 76.97C56.9817 75.8333 58.015 74.645 59.0483 73.25H52.9516C53.985 74.645 55.0183 75.8333 56 76.97ZM79.87 8.66666C76.6667 6.70333 69.5367 9.69999 61.3216 17.45C64.0083 20.4983 66.6433 23.805 69.1233 27.2667C73.36 27.68 77.545 28.3 81.5233 29.1267C84.1583 18.07 83.1767 10.475 79.87 8.66666ZM76.2533 38.3233L77.7516 40.9583C78.32 39.46 78.8883 37.9617 79.25 36.515C77.855 36.205 76.305 35.9467 74.7033 35.6883L76.2533 38.3233ZM83.745 1.89833C91.34 6.23833 92.1666 17.6567 88.9633 30.9867C102.087 34.8617 111.542 41.2683 111.542 50C111.542 58.7317 102.087 65.1383 88.9633 69.0133C92.1666 82.3433 91.34 93.7617 83.745 98.1017C76.2017 102.442 65.92 97.4817 56 88.0267C46.08 97.4817 35.7983 102.442 28.2033 98.1017C20.66 93.7617 19.8333 82.3433 23.0366 69.0133C9.91331 65.1383 0.458313 58.7317 0.458313 50C0.458313 41.2683 9.91331 34.8617 23.0366 30.9867C19.8333 17.6567 20.66 6.23833 28.2033 1.89833C35.7983 -2.44167 46.08 2.51833 56 11.9733C65.92 2.51833 76.2017 -2.44167 83.745 1.89833ZM82.2467 50C84.0033 53.875 85.5533 57.75 86.845 61.6767C97.695 58.4217 103.792 53.7717 103.792 50C103.792 46.2283 97.695 41.5783 86.845 38.3233C85.5533 42.25 84.0033 46.125 82.2467 50ZM29.7533 50C27.9966 46.125 26.4466 42.25 25.155 38.3233C14.305 41.5783 8.20831 46.2283 8.20831 50C8.20831 53.7717 14.305 58.4217 25.155 61.6767C26.4466 57.75 27.9966 53.875 29.7533 50ZM76.2533 61.6767L74.7033 64.3117C76.305 64.0533 77.855 63.795 79.25 63.485C78.8883 62.0383 78.32 60.54 77.7516 59.0417L76.2533 61.6767ZM61.3216 82.55C69.5367 90.3 76.6667 93.2967 79.87 91.3333C83.1767 89.525 84.1583 81.93 81.5233 70.8733C77.545 71.7 73.36 72.32 69.1233 72.7333C66.6433 76.195 64.0083 79.5017 61.3216 82.55ZM35.7466 38.3233L37.2966 35.6883C35.695 35.9467 34.145 36.205 32.75 36.515C33.1116 37.9617 33.68 39.46 34.2483 40.9583L35.7466 38.3233ZM50.6783 17.45C42.4633 9.69999 35.3333 6.70333 32.0783 8.66666C28.8233 10.475 27.8416 18.07 30.4766 29.1267C34.5739 28.286 38.7131 27.6651 42.8766 27.2667C45.3566 23.805 47.9916 20.4983 50.6783 17.45Z" fill="url(#paint0_linear)"/>
<defs>
<linearGradient id="paint0_linear" x1="24" y1="1.38229e-06" x2="82.5" y2="100" gradientUnits="userSpaceOnUse">
<stop stop-color="#61DBFB"/>
<stop offset="1" stop-color="#0FBEEC"/>
</linearGradient>
</defs>
</svg>
