<svg width="109" height="109" viewBox="0 0 109 109" fill="none" xmlns="http://www.w3.org/2000/svg">
<path d="M0.125 0.125H108.875V108.875H0.125V0.125ZM64.8312 89.9042C67.8521 95.825 73.9542 100.356 83.5 100.356C93.1667 100.356 100.417 95.3417 100.417 86.0979C100.417 77.5792 95.5229 73.7729 86.8229 70.0271L84.2854 68.9396C79.875 67.0667 78.0021 65.7979 78.0021 62.7771C78.0021 60.3 79.875 58.3667 82.8958 58.3667C85.7958 58.3667 87.7292 59.6354 89.4813 62.7771L97.3958 57.5208C94.0729 51.7208 89.3604 49.4854 82.8958 49.4854C73.7729 49.4854 67.9125 55.2854 67.9125 62.9583C67.9125 71.2958 72.8063 75.2229 80.1771 78.3646L82.7146 79.4521C87.4271 81.5062 90.2062 82.775 90.2062 86.2792C90.2062 89.1792 87.4875 91.2937 83.2583 91.2937C78.2438 91.2937 75.3438 88.6958 73.1687 85.0708L64.8312 89.9042ZM60.5417 49.9688H30.3333V59.0312H39.3958V102.833H49.9688V59.0312H60.5417V49.9688Z" fill="url(#paint0_linear)"/>
<defs>
<linearGradient id="paint0_linear" x1="109" y1="109" x2="-4.77933e-07" y2="-4.77933e-07" gradientUnits="userSpaceOnUse">
<stop stop-color="#2D79C7"/>
<stop offset="1" stop-color="#2ABED2"/>
</linearGradient>
</defs>
</svg>
