<svg width="107" height="107" viewBox="0 0 107 107" fill="none" xmlns="http://www.w3.org/2000/svg">
<path d="M0 0V107H107V0H0ZM79.7652 12.8902C86.1885 12.8902 91.6422 14.8563 96.0994 18.5846L91.1506 26.0211C87.1816 23.2892 83.4734 21.5638 79.7652 21.5638C76.0369 21.5638 74.0507 23.2892 74.0507 25.5195V25.7603C74.0507 28.7395 76.0402 29.7326 83.4767 31.7155C92.3945 34.1898 97.3366 37.4132 97.3366 45.0905V45.3346C97.3366 54.2523 90.6491 59.1944 81.2464 59.1944C74.5589 58.9537 67.8714 56.4793 62.6652 51.7746L68.3596 44.8297C72.332 48.0497 76.5284 50.2766 81.4905 50.2766C85.4462 50.2766 87.6731 48.7953 87.6731 46.0802V45.8161C87.6731 43.345 86.1918 42.1078 78.7553 40.1217C69.8376 37.8914 64.404 35.417 64.404 26.5026V26.2451C64.404 18.0763 70.834 12.8701 79.7484 12.8701L79.7652 12.8902ZM7.92134 13.8598H18.0763L24.7638 39.6368L32.4411 13.8598H39.8776L47.3141 39.6368L54.0016 13.8598H64.3973L51.7713 58.2013H43.345L36.166 32.4411L28.7295 58.2013H20.5607L7.92134 13.8598ZM10.1516 86.9375H50.2766V93.625H10.1516V86.9375Z" fill="black"/>
</svg>
