<svg width="22" height="22" viewBox="0 0 22 22" fill="none" xmlns="http://www.w3.org/2000/svg">
<circle cx="11" cy="11" r="11" fill="#FAFAFA"/>
<path fill-rule="evenodd" clip-rule="evenodd" d="M11 3C6.58 3 3 6.58 3 11C3 14.54 5.29 17.53 8.47 18.59C8.87 18.66 9.02 18.42 9.02 18.21C9.02 18.02 9.01 17.39 9.01 16.72C7 17.09 6.48 16.23 6.32 15.78C6.23 15.55 5.84 14.84 5.5 14.65C5.22 14.5 4.82 14.13 5.49 14.12C6.12 14.11 6.57 14.7 6.72 14.94C7.44 16.15 8.59 15.81 9.05 15.6C9.12 15.08 9.33 14.73 9.56 14.53C7.78 14.33 5.92 13.64 5.92 10.58C5.92 9.71 6.23 8.99 6.74 8.43C6.66 8.23 6.38 7.41 6.82 6.31C6.82 6.31 7.49 6.1 9.02 7.13C9.66 6.95 10.34 6.86 11.02 6.86C11.7 6.86 12.38 6.95 13.02 7.13C14.55 6.09 15.22 6.31 15.22 6.31C15.66 7.41 15.38 8.23 15.3 8.43C15.81 8.99 16.12 9.7 16.12 10.58C16.12 13.65 14.25 14.33 12.47 14.53C12.76 14.78 13.01 15.26 13.01 16.01C13.01 17.08 13 17.94 13 18.21C13 18.42 13.15 18.67 13.55 18.59C15.1381 18.0538 16.5181 17.0331 17.4958 15.6716C18.4734 14.31 18.9995 12.6762 19 11C19 6.58 15.42 3 11 3Z" fill="#24292E"/>
</svg>
