<svg width="107" height="107" viewBox="0 0 107 107" fill="none" xmlns="http://www.w3.org/2000/svg">
<path d="M0 0H107V107H0V0ZM28.1172 89.4044C30.495 94.4572 35.1911 98.6183 43.2161 98.6183C52.1328 98.6183 58.2556 93.8628 58.2556 83.46V49.1011H48.15V83.2222C48.15 88.3344 46.0694 89.6422 42.8 89.6422C39.3522 89.6422 37.9256 87.2644 36.3206 84.4706L28.1172 89.4044ZM63.665 88.3344C66.6372 94.16 72.6411 98.6183 82.0333 98.6183C91.5444 98.6183 98.6778 93.6844 98.6778 84.5894C98.6778 76.2078 93.8628 72.4628 85.3028 68.7772L82.8061 67.7072C78.4667 65.8644 76.6239 64.6161 76.6239 61.6439C76.6239 59.2067 78.4667 57.3044 81.4389 57.3044C84.2922 57.3044 86.1945 58.5528 87.9183 61.6439L95.7056 56.4722C92.4361 50.7656 87.7995 48.5661 81.4389 48.5661C72.4628 48.5661 66.6967 54.2728 66.6967 61.8222C66.6967 70.0256 71.5117 73.8894 78.7639 76.9806L81.2606 78.0506C85.8972 80.0717 88.6317 81.32 88.6317 84.7678C88.6317 87.6211 85.9567 89.7017 81.7956 89.7017C76.8617 89.7017 74.0083 87.1456 71.8683 83.5789L63.665 88.3344Z" fill="url(#paint0_linear)"/>
<defs>
<linearGradient id="paint0_linear" x1="0" y1="0" x2="107" y2="107" gradientUnits="userSpaceOnUse">
<stop stop-color="#D4E60F"/>
<stop offset="1" stop-color="#FFC700"/>
</linearGradient>
</defs>
</svg>
