<svg width="104" height="118" viewBox="0 0 104 118" fill="none" xmlns="http://www.w3.org/2000/svg">
<g clip-path="url(#clip0)">
<path d="M51.625 117.078C50.0809 117.078 48.5137 116.663 47.154 115.88L32.934 107.468C30.8137 106.269 31.8508 105.854 32.5422 105.624C35.377 104.633 35.9532 104.425 38.9723 102.697C39.295 102.513 39.7098 102.582 40.0325 102.789L50.9567 109.265C51.3485 109.496 51.9016 109.496 52.2704 109.265L94.8379 84.6973C95.2297 84.4668 95.4832 84.0059 95.4832 83.5449V34.409C95.4832 33.925 95.2297 33.4871 94.8149 33.2336L52.2704 8.68867C51.8786 8.4582 51.3485 8.4582 50.9567 8.68867L8.4352 33.2566C8.02036 33.4871 7.76685 33.948 7.76685 34.432V83.5449C7.76685 84.0059 8.02036 84.4668 8.4352 84.6742L20.0969 91.4039C26.4348 94.5613 30.3067 90.8508 30.3067 87.0941V38.6035C30.3067 37.9121 30.8598 37.382 31.5512 37.382H36.9442C37.6126 37.382 38.1887 37.9121 38.1887 38.6035V87.1172C38.1887 95.5523 33.5793 100.392 25.5821 100.392C23.1161 100.392 21.1801 100.392 15.7872 97.7187L4.63247 91.2887C1.86685 89.6984 0.161377 86.7254 0.161377 83.5219V34.409C0.161377 31.2285 1.86685 28.2324 4.63247 26.6422L47.154 2.07422C49.8504 0.553122 53.4227 0.553122 56.0961 2.07422L98.6637 26.6652C101.429 28.2555 103.135 31.2285 103.135 34.432V83.5449C103.135 86.7254 101.429 89.6984 98.6637 91.3117L56.0961 115.88C54.7364 116.663 53.1922 117.078 51.625 117.078ZM85.9879 68.6566C85.9879 59.4609 79.7653 57.018 66.6977 55.2894C53.4688 53.5379 52.1321 52.6391 52.1321 49.5508C52.1321 46.9926 53.2614 43.5816 63.0563 43.5816C71.7911 43.5816 75.0176 45.4715 76.3543 51.3715C76.4696 51.9246 76.9766 52.3395 77.5528 52.3395H83.084C83.4297 52.3395 83.7524 52.2012 83.9829 51.9477C84.2133 51.6941 84.3286 51.3484 84.3055 51.0027C83.4528 40.8391 76.7 36.1144 63.0563 36.1144C50.9106 36.1144 43.6739 41.2309 43.6739 49.8273C43.6739 59.1383 50.8875 61.7195 62.5262 62.8719C76.4696 64.2316 77.5528 66.2828 77.5528 69.0254C77.5528 73.773 73.727 75.8012 64.7618 75.8012C53.4918 75.8012 51.0258 72.9664 50.1961 67.366C50.104 66.7668 49.5969 66.3289 48.9747 66.3289H43.4665C42.7751 66.3289 42.245 66.882 42.245 67.5504C42.245 74.718 46.1399 83.2684 64.7848 83.2684C78.2442 83.2453 85.9879 77.9215 85.9879 68.6566V68.6566Z" fill="url(#paint0_linear)"/>
</g>
<defs>
<linearGradient id="paint0_linear" x1="17.2852" y1="17.0547" x2="72.252" y2="114.658" gradientUnits="userSpaceOnUse">
<stop stop-color="#6BC045"/>
<stop offset="1" stop-color="#3C873A"/>
</linearGradient>
<clipPath id="clip0">
<rect width="103.25" height="118" fill="white"/>
</clipPath>
</defs>
</svg>
