<svg width="22" height="22" viewBox="0 0 22 22" fill="none" xmlns="http://www.w3.org/2000/svg">
<circle cx="11" cy="11" r="11" fill="#FAFAFA"/>
<path d="M12.3333 5V6.33333H14.7267L8.17333 12.8867L9.11333 13.8267L15.6667 7.27333V9.66667H17V5H12.3333ZM15.6667 15.6667H6.33333V6.33333H11V5H6.33333C5.97971 5 5.64057 5.14048 5.39052 5.39052C5.14048 5.64057 5 5.97971 5 6.33333V15.6667C5 16.0203 5.14048 16.3594 5.39052 16.6095C5.64057 16.8595 5.97971 17 6.33333 17H15.6667C16.0203 17 16.3594 16.8595 16.6095 16.6095C16.8595 16.3594 17 16.0203 17 15.6667V11H15.6667V15.6667Z" fill="black"/>
</svg>
