<svg width="98" height="94" viewBox="0 0 98 94" fill="none" xmlns="http://www.w3.org/2000/svg">
<path d="M67.915 65.3366C69.6633 65.1659 71.2776 64.3248 72.4191 62.9896C73.5606 61.6545 74.1407 59.9291 74.0375 58.1756C73.9569 56.3746 73.1886 54.6731 71.891 53.4216C70.5934 52.1701 68.8652 51.4639 67.0625 51.4486H66.8145C64.9652 51.5146 63.2176 52.3117 61.9554 53.6649C60.6932 55.0182 60.0196 56.8169 60.0823 58.6664C60.2063 60.6246 61.0072 62.2159 62.1025 63.3732C57.8297 71.6864 51.4075 77.8089 41.6735 82.9446C35.1325 86.3701 28.2195 87.6566 21.4977 86.7369C15.8712 85.9464 11.4743 83.4302 8.77217 79.3951C4.74217 73.2726 4.37017 66.6747 7.73367 60.0717C9.78506 56.1324 12.7163 52.7185 16.3 50.0949C15.5626 48.0463 14.9907 45.9419 14.5898 43.8019C-3.5245 56.7702 -1.67483 74.5022 3.8225 82.8826C7.92483 88.9999 16.3 92.9111 25.4708 92.9111C27.9198 92.9111 30.4928 92.7302 32.9987 92.1154C48.8965 89.0567 60.9452 79.5191 67.8582 65.4554L67.915 65.3366V65.3366Z" fill="url(#paint0_linear)"/>
<path d="M89.7496 50.0432C80.2739 38.9142 66.3291 32.8021 50.4261 32.8021H48.3439C47.3106 30.5391 44.9287 29.1286 42.2317 29.1286H42.0457C38.2017 29.1286 35.1999 32.4352 35.3239 36.2844C35.4427 39.9527 38.5634 43.0114 42.2989 43.0114H42.6037C43.926 42.9614 45.2058 42.5312 46.2898 41.7725C47.3739 41.0138 48.2162 39.9586 48.7159 38.7334H50.9841C60.4081 38.7334 69.3309 41.4821 77.4684 46.8657C83.6994 50.9577 88.1737 56.3414 90.6796 62.7636C92.8754 68.0284 92.7566 73.1641 90.4987 77.4524C87.0112 84.1794 81.1367 87.7237 73.3764 87.7237C68.4836 87.7237 63.7096 86.1944 61.2606 85.0939C59.7984 86.3081 57.3442 88.3282 55.5669 89.5527C60.9506 91.9966 66.3962 93.4071 71.6507 93.4071C83.5806 93.4071 92.4362 86.6801 95.8101 80.1959C99.4732 72.8489 99.1736 60.4954 89.8116 49.9244L89.7496 50.0432V50.0432Z" fill="url(#paint1_linear)"/>
<path d="M26.5097 67.5375C26.6285 71.2058 29.744 74.2645 33.4847 74.2645H33.7327C34.6519 74.2435 35.5575 74.0388 36.3964 73.6624C37.2353 73.2861 37.9903 72.7457 38.6172 72.0731C39.244 71.4005 39.73 70.6093 40.0464 69.7461C40.3628 68.8829 40.5034 67.965 40.4597 67.0467C40.4597 63.3783 37.277 60.3248 33.5467 60.3248H33.2987C33.0507 60.3248 32.689 60.3248 32.379 60.4385C27.3054 51.8773 25.1612 42.6962 25.962 32.802C26.4477 25.3362 28.8915 18.852 33.2987 13.4683C36.967 8.88033 43.88 6.61733 48.592 6.49333C61.798 6.24533 67.3057 22.7063 67.7294 29.2473L73.8467 31.0763C72.4362 11.0193 59.9639 0.5 48.034 0.5C36.843 0.5 26.5097 8.63233 22.3505 20.5673C16.6569 36.4652 20.3924 51.7533 27.3674 63.988C26.7577 64.7837 26.3909 66.189 26.5097 67.5375V67.5375Z" fill="url(#paint2_linear)"/>
<defs>
<linearGradient id="paint0_linear" x1="15.8372" y1="44.1163" x2="62.6977" y2="82.686" gradientUnits="userSpaceOnUse">
<stop stop-color="#825EBB"/>
<stop offset="1" stop-color="#6523CF"/>
</linearGradient>
<linearGradient id="paint1_linear" x1="50.8023" y1="31.8605" x2="96.2209" y2="91.3372" gradientUnits="userSpaceOnUse">
<stop stop-color="#825EBB"/>
<stop offset="1" stop-color="#6523CF"/>
</linearGradient>
<linearGradient id="paint2_linear" x1="64.1396" y1="5.18605" x2="33.1396" y2="65.0233" gradientUnits="userSpaceOnUse">
<stop stop-color="#825EBB"/>
<stop offset="1" stop-color="#6523CF"/>
</linearGradient>
</defs>
</svg>
